<?xml version="1.0" encoding="UTF-8" standalone="no"?>
<!-- Created with Inkscape (http://www.inkscape.org/) -->

<svg
   xmlns:dc="http://purl.org/dc/elements/1.1/"
   xmlns:cc="http://creativecommons.org/ns#"
   xmlns:rdf="http://www.w3.org/1999/02/22-rdf-syntax-ns#"
   xmlns:svg="http://www.w3.org/2000/svg"
   xmlns="http://www.w3.org/2000/svg"
   xmlns:sodipodi="http://sodipodi.sourceforge.net/DTD/sodipodi-0.dtd"
   xmlns:inkscape="http://www.inkscape.org/namespaces/inkscape"
   width="20"
   height="20"
   viewBox="0 0 5.2916665 5.2916668"
   version="1.1"
   id="svg8"
   inkscape:version="0.92.3 (2405546, 2018-03-11)"
   sodipodi:docname="icon_loginas.svg">
  <defs
     id="defs2" />
  <sodipodi:namedview
     id="base"
     pagecolor="#ffffff"
     bordercolor="#666666"
     borderopacity="1.0"
     inkscape:pageopacity="0.0"
     inkscape:pageshadow="2"
     inkscape:zoom="15.839192"
     inkscape:cx="-3.4513823"
     inkscape:cy="7.4007326"
     inkscape:document-units="mm"
     inkscape:current-layer="layer1"
     showgrid="false"
     units="px"
     inkscape:window-width="1920"
     inkscape:window-height="1043"
     inkscape:window-x="17"
     inkscape:window-y="1080"
     inkscape:window-maximized="1"
     inkscape:snap-bbox="true"
     inkscape:bbox-paths="true"
     inkscape:bbox-nodes="true"
     inkscape:object-paths="false"
     inkscape:snap-intersection-paths="true"
     inkscape:snap-smooth-nodes="true"
     inkscape:snap-global="false" />
  <metadata
     id="metadata5">
    <rdf:RDF>
      <cc:Work
         rdf:about="">
        <dc:format>image/svg+xml</dc:format>
        <dc:type
           rdf:resource="http://purl.org/dc/dcmitype/StillImage" />
        <dc:title />
      </cc:Work>
    </rdf:RDF>
  </metadata>
  <g
     inkscape:label="Layer 1"
     inkscape:groupmode="layer"
     id="layer1"
     transform="translate(0,-291.70832)">
    <path
       style="opacity:0.5;fill:#cccccc;fill-opacity:1;stroke:none;stroke-width:9.23951244;stroke-linecap:square;stroke-linejoin:miter;stroke-miterlimit:4;stroke-dasharray:none;stroke-dashoffset:0;stroke-opacity:1"
       d="m 1.8252973,291.91987 a 1.1004433,1.1004433 0 0 0 -1.10068044,1.10068 1.1004433,1.1004433 0 0 0 0.49970554,0.92083 1.720233,1.1510384 0 0 0 -1.11949542,1.07744 v 1.8472 H 3.5452141 v -1.8472 a 1.720233,1.1510384 0 0 0 -1.1194954,-1.07688 1.1004433,1.1004433 0 0 0 0.4997055,-0.92139 1.1004433,1.1004433 0 0 0 -1.1001269,-1.10068 z"
       id="path834"
       inkscape:connector-curvature="0" />
    <path
       style="opacity:1;fill:#ffffff;fill-opacity:1;stroke:none;stroke-width:11.2141304;stroke-linecap:square;stroke-linejoin:miter;stroke-miterlimit:4;stroke-dasharray:none;stroke-dashoffset:0;stroke-opacity:1"
       d="M 3.8967209,293.94342 A 1.2566366,1.2566366 0 0 0 2.7180134,294.7663 H 1.0905116 0.37498624 v 0.81901 0.8085 H 1.0905116 v -0.8085 H 1.381038 v 0.68398 h 0.6529929 v -0.68398 h 0.6668275 a 1.2566366,1.2566366 0 0 0 1.1958625,0.87158 1.2566366,1.2566366 0 0 0 1.2567346,-1.25674 1.2566366,1.2566366 0 0 0 -1.2567346,-1.25673 z m 0,0.53733 a 0.7193499,0.7193499 0 0 1 0.719399,0.7194 0.7193499,0.7193499 0 0 1 -0.719399,0.7194 0.7193499,0.7193499 0 0 1 -0.719399,-0.7194 0.7193499,0.7193499 0 0 1 0.719399,-0.7194 z"
       id="path814"
       inkscape:connector-curvature="0" />
  </g>
</svg>
